<svg id="SvgjsSvg1086" width="288" height="288" xmlns="http://www.w3.org/2000/svg" version="1.1" xmlns:xlink="http://www.w3.org/1999/xlink" xmlns:svgjs="http://svgjs.com/svgjs"><defs id="SvgjsDefs1087"></defs><g id="SvgjsG1088" transform="matrix(1,0,0,1,0,0)"><svg xmlns="http://www.w3.org/2000/svg" enable-background="new 0 0 512 512" viewBox="0 0 512 512" width="288" height="288"><path fill="#ffffff" fill-rule="evenodd" d="M329.897,298.236c-7.683,10.958-16.719,20.898-26.866,29.577l73.052,71.609l27.811-28.661L329.897,298.236z" clip-rule="evenodd" class="colora79ba7 svgShape"></path><path fill="#ffffff" fill-rule="evenodd" d="M330.389,297.743c-1.436,4.712-4.114,8.293-7.952,10.663l72.568,72.093l8.887-9.738L330.389,297.743z" clip-rule="evenodd" class="color837683 svgShape"></path><path fill="#ff9800" fill-rule="evenodd" d="M468.588,492.371l31.387-32.346c5.513-5.681,5.373-14.837-0.306-20.349l-86.934-84.358
				c-5.679-5.513-14.839-5.375-20.35,0.305l-31.387,32.347c-5.511,5.68-5.374,14.839,0.306,20.35l86.934,84.357
				C453.918,498.187,463.076,498.051,468.588,492.371z" clip-rule="evenodd" class="colorf1ba84 svgShape"></path><path fill="#ff9800" fill-rule="evenodd" d="M399.873,355.317l86.934,84.358c5.68,5.513,5.819,14.668,0.306,20.349l-31.387,32.347
				c-1.16,1.196-2.481,2.145-3.898,2.849c5.459,2.713,12.301,1.746,16.759-2.849l31.387-32.347
				c5.513-5.681,5.373-14.837-0.307-20.349l-86.934-84.358c-4.484-4.353-11.137-5.183-16.452-2.544
				C397.574,353.415,398.787,354.262,399.873,355.317z" clip-rule="evenodd" class="colore3a76f svgShape"></path><circle cx="211.266" cy="218.543" r="158.305" fill="#ff9800" fill-rule="evenodd" clip-rule="evenodd" transform="rotate(-45.001 211.265 218.546)" class="colorffe177 svgShape"></circle><circle cx="211.266" cy="218.541" r="125.04" fill="#ffffff" fill-rule="evenodd" clip-rule="evenodd" class="color837683 svgShape"></circle><path fill="#ffffff" fill-rule="evenodd" d="M314.076,218.541c0,25.578-7.68,49.363-20.86,69.173c-5.086,7.645-10.992,14.699-17.591,21.035
				c-19.965,19.169-46.28,31.773-75.474,34.345c3.662,0.323,7.37,0.487,11.116,0.487c6.076,0,12.05-0.433,17.894-1.271
				c0.754-0.108,1.506-0.223,2.256-0.344c59.477-9.636,104.89-61.227,104.89-123.425c0-69.058-55.982-125.04-125.04-125.04
				c-3.746,0-7.453,0.165-11.115,0.487C264.002,99.613,314.076,153.229,314.076,218.541z" clip-rule="evenodd" class="color685e68 svgShape"></path><path fill="#66ccff" fill-rule="evenodd" d="M211.267,230.6c-45.043,0-82.126,34.129-86.822,77.925c22.49,21.705,53.097,35.056,86.822,35.056
				c6.076,0,12.05-0.433,17.894-1.271c26.593-3.812,50.483-15.994,68.922-33.788C293.393,264.717,256.316,230.6,211.267,230.6z" clip-rule="evenodd" class="color8ac9fe svgShape"></path><path fill="#66ccff" fill-rule="evenodd" d="M200.153,231.301c51.977,6.605,72.923,45.934,77.739,93.066c7.27-4.588,14.034-9.903,20.19-15.845
				c-4.689-43.805-41.766-77.922-86.816-77.922C207.502,230.6,203.792,230.838,200.153,231.301z" clip-rule="evenodd" class="color60b7ff svgShape"></path><path fill="#ffffff" fill-rule="evenodd" d="M211.267,223.999c24.316,0,44.148-19.832,44.148-44.149c0-24.316-19.832-44.148-44.148-44.148
				c-24.316,0-44.149,19.832-44.149,44.148C167.119,204.167,186.951,223.999,211.267,223.999z" clip-rule="evenodd" class="colorf6dccd svgShape"></path><path fill="#ffffff" fill-rule="evenodd" d="M244.3,179.851c0,22.5-16.832,41.069-38.591,43.801c1.82,0.229,3.675,0.347,5.557,0.347
				c24.383,0,44.149-19.766,44.149-44.149c0-24.382-19.766-44.148-44.149-44.148c-1.882,0-3.737,0.118-5.557,0.347
				C227.469,138.781,244.3,157.35,244.3,179.851z" clip-rule="evenodd" class="colorf1cbbc svgShape"></path><path fill-rule="evenodd" d="M211.239,101.502c64.539,0,117.048,52.5,117.048,117.04c0,27.5-9.53,52.81-25.476,72.809
		c-8.586-29.89-31.184-53.37-60.01-63.419c12.502-9.529,20.617-24.581,20.617-41.48c0-28.76-23.4-52.15-52.179-52.15
		c-28.731,0-52.131,23.39-52.131,52.15c0,16.899,8.114,31.95,20.617,41.48c-28.826,10.049-51.424,33.529-60.01,63.419
		c-15.946-19.999-25.476-45.309-25.476-72.809C94.238,154.001,146.7,101.502,211.239,101.502L211.239,101.502z M175.101,186.451
		c0,19.92,16.229,36.13,36.138,36.139l0,0c0.047,0,0.047,0,0.047,0c19.909-0.01,36.138-16.219,36.138-36.139
		c0-19.94-16.229-36.15-36.185-36.15C191.33,150.301,175.101,166.511,175.101,186.451L175.101,186.451z M132.924,305.42
		c20.758,18.729,48.216,30.161,78.315,30.161c30.1,0,57.604-11.431,78.363-30.161c-6.039-38.36-39.016-66.819-78.315-66.83
		c0,0,0,0-0.047,0l0,0C171.94,238.601,138.963,267.06,132.924,305.42L132.924,305.42z M344.281,218.541
		c0-73.361-59.68-133.04-133.042-133.04c-73.361,0-133.042,59.678-133.042,133.04c0,73.348,59.68,133.04,133.042,133.04
		C284.601,351.581,344.281,291.89,344.281,218.541L344.281,218.541z M494.212,454.44l-31.373,32.35
		c-2.453,2.53-6.511,2.591-9.058,0.131l-86.902-84.351c-1.227-1.18-1.887-2.77-1.934-4.49c-0.047-1.719,0.613-3.341,1.793-4.55
		l31.373-32.35c1.18-1.21,2.783-1.89,4.482-1.92c0.047,0,0.094,0,0.094,0c1.699,0,3.255,0.63,4.482,1.789l86.902,84.36
		C496.618,447.861,496.666,451.921,494.212,454.44L494.212,454.44z M341.875,321.35l37.412,36.281l-16.701,17.17L325.74,339.04
		C331.543,333.541,336.921,327.631,341.875,321.35L341.875,321.35z M60.931,218.541c0,82.869,67.465,150.298,150.309,150.298
		c82.892,0,150.309-67.429,150.309-150.298c0-82.88-67.417-150.312-150.309-150.312C128.395,68.23,60.931,135.661,60.931,218.541
		L60.931,218.541z M505.252,433.921l-86.949-84.351c-4.293-4.159-9.907-6.4-15.946-6.31c-4.105,0.07-8.02,1.25-11.464,3.371
		l-39.629-38.461c15.285-23.779,24.674-51.68,26.089-81.629h37.176c4.387,0,7.973-3.59,7.973-8c0-4.421-3.586-8-7.973-8h-37.176
		C373.296,125.19,304.604,56.49,219.26,52.431V15.293c0-4.421-3.586-8.001-8.02-8.001c-4.387,0-7.973,3.581-7.973,8.001v37.138
		c-85.345,4.06-154.036,72.759-158.14,158.111H7.997c-4.387,0-7.973,3.579-7.973,8c0,4.41,3.586,8,7.973,8h37.129
		c4.104,85.338,72.795,154.039,158.14,158.099v37.14c0,4.419,3.586,8,7.973,8c4.435,0,8.02-3.581,8.02-8v-37.14
		c35.478-1.681,68.078-14.529,94.309-35.099l38.403,37.23c-2.029,3.47-3.114,7.419-3.019,11.549
		c0.094,5.989,2.5,11.581,6.747,15.731l86.949,84.36c4.34,4.209,10.002,6.31,15.616,6.31c5.803,0,11.653-2.27,16.04-6.791
		l31.421-32.339C514.31,456.731,514.074,442.52,505.252,433.921z" clip-rule="evenodd" fill="#000000" class="color000 svgShape"></path></svg></g></svg>