<svg  id="SvgjsSvg1049" width="288" height="288" xmlns="http://www.w3.org/2000/svg" version="1.1" xmlns:xlink="http://www.w3.org/1999/xlink" xmlns:svgjs="http://svgjs.com/svgjs"><defs id="SvgjsDefs1050"></defs><g id="SvgjsG1051" transform="matrix(1,0,0,1,0,0)"><svg xmlns="http://www.w3.org/2000/svg" data-name="Layer 1" viewBox="0 0 128 128" width="288" height="288"><path d="M88.81885 86.50342a2 2 0 0 0-2.63672-3.00781C85.68066 83.93506 74.38623 94.00244 73.86377 109H54.13623c-.52246-14.99756-11.81689-25.06494-12.31836-25.50439a1.99991 1.99991 0 0 0-2.6377 3.00684c.11426.10059 11.41748 10.22754 10.96094 24.43311A2.00079 2.00079 0 0 0 52.14014 113H75.85986a2.00079 2.00079 0 0 0 1.999-2.06445C77.40332 96.76221 88.65479 86.64893 88.81885 86.50342zM77.50928 119a2.0001 2.0001 0 0 0-2-2H52.49072a2 2 0 0 0 0 4H75.50928A2.0001 2.0001 0 0 0 77.50928 119zM56.5 124a2 2 0 0 0 0 4h15a2 2 0 0 0 0-4z" fill="#4caf50" class="color000 svgShape"></path><path d="M20,40.8421v6.3158a6.11462,6.11462,0,0,0,5.28882,6.0509A39.86412,39.86412,0,0,0,30.11646,64.86a6.11465,6.11465,0,0,0,.53772,8.01959l4.46613,4.466a6.10759,6.10759,0,0,0,8.0202.53827,39.86083,39.86083,0,0,0,11.6507,4.82733A6.11457,6.11457,0,0,0,60.8421,88h6.3158a6.11452,6.11452,0,0,0,6.0509-5.28882,39.86187,39.86187,0,0,0,11.65076-4.82733,6.10751,6.10751,0,0,0,8.02026-.53839l4.46582-4.46576a6.11464,6.11464,0,0,0,.5379-8.01971,39.8648,39.8648,0,0,0,4.82764-11.65118A6.11462,6.11462,0,0,0,108,47.1579V40.8421a6.11452,6.11452,0,0,0-5.28882-6.0509A39.8631,39.8631,0,0,0,97.88354,23.14a6.11446,6.11446,0,0,0-.53772-8.01959L92.8797,10.6543a6.10746,6.10746,0,0,0-8.02026-.53815A39.85951,39.85951,0,0,0,73.2088,5.28882,6.11452,6.11452,0,0,0,67.1579,0H60.8421a6.11457,6.11457,0,0,0-6.0509,5.28882,39.85785,39.85785,0,0,0-11.65063,4.82733,6.10738,6.10738,0,0,0-8.02039.53833l-4.46582,4.4657a6.1146,6.1146,0,0,0-.5379,8.01978A39.8631,39.8631,0,0,0,25.28882,34.7912,6.11452,6.11452,0,0,0,20,40.8421ZM64,25A19.02161,19.02161,0,0,1,83,44a2,2,0,0,1-4,0A15,15,0,1,0,64,59a2,2,0,0,1,0,4,19,19,0,0,1,0-38ZM36,42a2.0001,2.0001,0,0,1,2,2A26,26,0,1,0,64,18a2,2,0,0,1,0-4A30,30,0,1,1,34,44,2.0001,2.0001,0,0,1,36,42Z" fill="#4caf50" class="color000 svgShape"></path></svg></g></svg>