<svg  id="SvgjsSvg1066" width="288" height="288" xmlns="http://www.w3.org/2000/svg" version="1.1" xmlns:xlink="http://www.w3.org/1999/xlink" xmlns:svgjs="http://svgjs.com/svgjs"><defs id="SvgjsDefs1067"></defs><g id="SvgjsG1068"><svg xmlns="http://www.w3.org/2000/svg" data-name="Layer 1" viewBox="0 0 64 64" width="288" height="288"><path d="M6.43 56.742l20.409 4.922A11.966 11.966 0 0 0 29.657 62a12.222 12.222 0 0 0 1.661-.114l22.1-3.046a1.977 1.977 0 0 0 1.825 1.226h3.782A1.978 1.978 0 0 0 61 58.09V40.775A1.978 1.978 0 0 0 59.024 38.8H55.242a1.978 1.978 0 0 0-1.975 1.976V41.2h-1.9L45.3 39.238a9.2 9.2 0 0 0-4.19-.334L29.015 40.742a4.336 4.336 0 0 0-3.9 4.114 4.016 4.016 0 0 0 1.78 3.278L8.045 46.7a4.952 4.952 0 0 0-3.753 1.257A3.89 3.89 0 0 0 3 50.825v1.924a4.254 4.254 0 0 0 3.43 3.994zM59.067 40.775l-.043 17.357H55.242L55.2 58.09l.042-17.357zM4.933 52.749V50.825a1.981 1.981 0 0 1 .674-1.449 2.987 2.987 0 0 1 2.035-.756c.085 0 .171 0 .256.009l30.177 2.293a.967.967 0 0 0 .277-1.909l-9.244-1.99a2.38 2.38 0 0 1-2.057-2.167 2.429 2.429 0 0 1 2.255-2.2L41.4 40.815a7.292 7.292 0 0 1 3.306.262l6.216 2.008a.966.966 0 0 0 .3.047h2.05V56.909L31.055 59.971a10.259 10.259 0 0 1-3.763-.186L6.883 54.863h0A2.336 2.336 0 0 1 4.933 52.749zM35.867 36.866c11.193 0 20.3-7.372 20.3-16.433S47.06 4 35.867 4a.966.966 0 0 0-.967.967v2A9.459 9.459 0 0 0 29.311 9.8h-3.5V6.9a.966.966 0 0 0-.967-.967H13.455a2.9 2.9 0 1 0 0 1.934H23.88v2.9a.965.965 0 0 0 .966.966h2.887a14.983 14.983 0 0 0-2.052 4.833H23.3v-2.9a.966.966 0 0 0-.967-.967H17.322a2.9 2.9 0 1 0 0 1.933h4.045v2.9a.966.966 0 0 0 .966.967h3.022c-.036.319-.065.64-.083.966H13.455a2.9 2.9 0 1 0 0 1.934H25.272c.018.326.047.647.083.966H22.333a.966.966 0 0 0-.966.967v2.9H17.322a2.9 2.9 0 1 0 0 1.933h5.011A.966.966 0 0 0 23.3 27.2V24.3h2.381a14.983 14.983 0 0 0 2.052 4.833H24.846a.966.966 0 0 0-.966.967V33H13.455a2.9 2.9 0 1 0 0 1.933H24.846a.966.966 0 0 0 .967-.967v-2.9h3.5A9.454 9.454 0 0 0 34.9 33.9V35.9A.966.966 0 0 0 35.867 36.866zm-25.134-29A.967.967 0 1 1 11.7 6.9.968.968 0 0 1 10.733 7.867zM14.6 14.633a.967.967 0 1 1 .967-.966A.968.968 0 0 1 14.6 14.633zm0 13.533a.967.967 0 1 1 .967-.966A.968.968 0 0 1 14.6 28.166zm-3.867 6.767a.967.967 0 1 1 .967-.967A.967.967 0 0 1 10.733 34.933zm26.1-27.066V6.088c2.009.647 3.761 3.27 4.8 6.882a23.064 23.064 0 0 1-4.8.664zm0 19.365a23.016 23.016 0 0 1 4.8.664c-1.039 3.612-2.791 6.235-4.8 6.882V27.232zm6.655 1.231c2.225.846 3.677 2.039 3.922 3.221a20.5 20.5 0 0 1-6.983 2.794A15.907 15.907 0 0 0 43.488 28.463zM40.427 6.388A20.5 20.5 0 0 1 47.41 9.182c-.245 1.181-1.7 2.375-3.922 3.22A15.91 15.91 0 0 0 40.427 6.388zm-3.594 9.179a25.061 25.061 0 0 0 5.251-.718 27.993 27.993 0 0 1 .528 4.617H36.833zm0 5.833h5.779a27.993 27.993 0 0 1-.528 4.617 25.014 25.014 0 0 0-5.251-.718zm12.218 9.11c-.7-1.59-2.49-2.976-5.1-3.925a29.886 29.886 0 0 0 .591-5.185h9.631A13.27 13.27 0 0 1 49.051 30.51zm5.122-11.044H44.542a29.875 29.875 0 0 0-.591-5.185c2.611-.95 4.4-2.335 5.1-3.925A13.27 13.27 0 0 1 54.173 19.466zM10.733 21.4a.967.967 0 1 1 .967-.967A.968.968 0 0 1 10.733 21.4zm16.434-.967c0-5.96 3.389-10.885 7.733-11.529V31.962C30.556 31.318 27.167 26.393 27.167 20.433z" fill="#e91e63" class="color000 svgShape"></path></svg></g></svg>