<svg  id="SvgjsSvg1102" width="288" height="288" xmlns="http://www.w3.org/2000/svg" version="1.1" xmlns:xlink="http://www.w3.org/1999/xlink" xmlns:svgjs="http://svgjs.com/svgjs"><defs id="SvgjsDefs1103"></defs><g id="SvgjsG1104" transform="matrix(1,0,0,1,0,0)"><svg xmlns="http://www.w3.org/2000/svg" viewBox="0 0 131.19 114.67" width="288" height="288"><g data-name="Layer 2" fill="#000000" class="color000 svgShape"><g data-name="Layer 1" fill="#000000" class="color000 svgShape"><path fill="#f44336" d="M128.19,37.87a37.36,37.36,0,0,1-2.59,13.71H98.89L92.83,39.46a5.4,5.4,0,0,0-9.4,0L73.11,60.1,70.3,54.48a5.41,5.41,0,0,0-9.41,0L58.08,60.1,47.76,39.46a5.4,5.4,0,0,0-9.4,0L32.3,51.58H5.59A37.36,37.36,0,0,1,3,37.87C3,18,17,3,35.55,3c16,0,24.86,12,28.72,19.2l1.32,2.45,1.32-2.45C70.78,15,79.66,3,95.64,3,114.2,3,128.19,18,128.19,37.87Z" class="colorce3649 svgShape"></path><path d="M95.64,0c-16.23,0-25.78,11.56-30,18.49C61.33,11.56,51.78,0,35.55,0,15.28,0,0,16.28,0,37.87A40.35,40.35,0,0,0,3.19,53.65l.39.93H34.16L41,40.8a2.43,2.43,0,0,1,4,0l13,26,5.5-11a2.41,2.41,0,0,1,4,0l5.5,11,13-26a2.43,2.43,0,0,1,4,0L97,54.58h30.58l.39-.93a40.35,40.35,0,0,0,3.19-15.78C131.19,16.28,115.91,0,95.64,0Zm30,51.58H98.89L92.83,39.46a5.4,5.4,0,0,0-9.4,0L73.11,60.1,70.3,54.48a5.41,5.41,0,0,0-9.41,0L58.08,60.1,47.76,39.46a5.4,5.4,0,0,0-9.4,0L32.3,51.58H5.59A37.36,37.36,0,0,1,3,37.87C3,18,17,3,35.55,3c16,0,24.86,12,28.72,19.2l1.32,2.45,1.32-2.45C70.78,15,79.66,3,95.64,3c18.56,0,32.55,15,32.55,34.87A37.36,37.36,0,0,1,125.6,51.58Z" fill="#000000" class="color000 svgShape"></path><path d="M95.64,59.09a2.25,2.25,0,0,1-2-1.25l-5.49-11-13,26a2.25,2.25,0,0,1-4,0l-5.5-11-5.49,11a2.42,2.42,0,0,1-4,0l-13-26-5.49,11a2.25,2.25,0,0,1-2,1.25H5.79l1.46,2.3c7.6,12,20.86,23.14,37.65,37.31l1.71,1.45c4.7,4,10,8.44,15.54,13.23a5.25,5.25,0,0,0,6.89,0c5.45-4.72,10.57-9,15.53-13.23l1.72-1.45c16.79-14.17,30.05-25.35,37.65-37.31l1.46-2.3ZM84.35,96.41l-1.72,1.45c-5,4.19-10.09,8.52-15.56,13.26a2.32,2.32,0,0,1-2.95,0c-5.54-4.81-10.87-9.3-15.57-13.27l-1.71-1.44C31.35,83.34,18.9,72.83,11.33,62.09H35.55a5.22,5.22,0,0,0,4.7-2.91l2.81-5.62L53.38,74.21a5.41,5.41,0,0,0,9.4,0l2.81-5.62,2.82,5.62a5.26,5.26,0,0,0,9.4,0L88.13,53.56l2.81,5.63a5.23,5.23,0,0,0,4.7,2.9h24.22C112.29,72.83,99.84,83.34,84.35,96.41Z" fill="#000000" class="color000 svgShape"></path><path fill="#f44336" d="M119.86,62.09c-7.57,10.74-20,21.25-35.51,34.32l-1.72,1.45c-5,4.19-10.09,8.52-15.56,13.26a2.32,2.32,0,0,1-2.95,0c-5.54-4.81-10.87-9.3-15.57-13.27l-1.71-1.44C31.35,83.34,18.9,72.83,11.33,62.09H35.55a5.22,5.22,0,0,0,4.7-2.91l2.81-5.62L53.38,74.21a5.41,5.41,0,0,0,9.4,0l2.81-5.62,2.82,5.62a5.26,5.26,0,0,0,9.4,0L88.13,53.56l2.81,5.63a5.23,5.23,0,0,0,4.7,2.9Z" class="colorce3649 svgShape"></path></g></g></svg></g></svg>